<svg xmlns="http://www.w3.org/2000/svg" viewBox="0 0 150 159">
  <defs>
    <linearGradient id="a" x1="0%" x2="0%" y1="100%" y2="0%">
      <stop offset="3%" stop-color="#0CFF00"/>
      <stop offset="49%" stop-color="#FFF600"/>
      <stop offset="100%" stop-color="#8C0000"/>
    </linearGradient>
  </defs>
  <path fill="#3CBEF0" fill-rule="evenodd" d="M6 6h144v145H6V6z"/>
  <path fill="#FFF" fill-rule="evenodd" d="M150 146v-35l-19-35-25 2-21-10-22-24-47 1v-5l49-1 23 23 21 11 25-2 16 29v46z"/>
  <path fill="red" fill-rule="evenodd" d="M150 142v-35l-19-35-25 2-21-10-22-24-47 1v-5l49-1 23 23 21 11 25-2 16 29v46z"/>
  <path fill="url(#a)" fill-rule="evenodd" d="M13 44l50-1 22 24 21 10 25-2 19 35v40H7c13-29 6-106 6-106z"/>
  <path fill="#FFF" fill-rule="evenodd" d="M3 0l44 4h1c6 1-5 5-3 7 4 5-3 7-2 8 4 3 38 9 40 17-1 19-26 4-28 35 4 2 45 8 49 18-3 28-19-6-45 71l-59-5L3 0z"/>
  <path fill-rule="evenodd" d="M6 6h38c6 1-3 2-2 5 4 5-3 8-4 10 4 2 41 9 43 16-1 18-21-5-30 35 4 3 48 9 51 18-6 24-19-9-43 61H6V6z"/>
</svg>
